<svg width="74" height="80" viewBox="0 0 74 80" xmlns="http://www.w3.org/2000/svg" xmlns:xlink="http://www.w3.org/1999/xlink">
    <defs>
        <path d="M16.372 19.612C9.914 28.149.392 28.177.012 42.328-.375 56.742 8.77 58.72 17.747 63.97c10.415 6.091 7.765 13.813 21.486 15.745 19.871 2.798 36.135-15.362 34.676-38.74C72.435 17.36 54.186 7 38.577 7c-15.61 0-19.014 8.394-22.205 12.612z" id="128mhp3uoa"/>
        <path id="l5wt8lhjqc" d="M0 0h32.025v21.011H0z"/>
        <path d="M4.41.336a6.459 6.459 0 0 0 4.1 12.249 6.458 6.458 0 0 0 4.074-8.175A6.462 6.462 0 0 0 6.461 0c-.68 0-1.37.108-2.05.336" id="s9kcau16se"/>
        <path d="M4.41.336a6.459 6.459 0 0 0 4.1 12.249 6.458 6.458 0 0 0 4.074-8.175A6.462 6.462 0 0 0 6.461 0c-.68 0-1.37.108-2.05.336" id="vgtxyme62g"/>
        <path d="M.336 8.51a6.459 6.459 0 1 0 12.249-4.1 6.459 6.459 0 0 0-12.25 4.1z" id="ca5kgji9oi"/>
    </defs>
    <g fill="none" fill-rule="evenodd">
        <mask id="7qeat2pzeb" fill="#fff">
            <use xlink:href="#128mhp3uoa"/>
        </mask>
        <use fill="#C7E1FA" xlink:href="#128mhp3uoa"/>
        <path d="M65.053 73.828s5.839-19.117-2.705-35.468c-7.946-15.206-15.954-16.695-22.726-16.31-6.772.386-17.42 6.955-17.42 6.955L21 31.565l17.26 27.347S43.691 69.627 34.88 83l26.31-.943 3.864-8.23z" fill="#CDB6FE" mask="url(#7qeat2pzeb)"/>
        <path d="M43.783 50.564c-2.888-5.91-8.026-3.143-11.783-1.106l6.003 9.315S42.556 67.219 36.795 79c10.977-6.319 10.193-18.443 10.193-18.443s-.317-4.083-3.205-9.993z" fill="#A485FC" mask="url(#7qeat2pzeb)"/>
        <path d="M27.957 64.983a3.696 3.696 0 0 1-2.46-1.268c-3.933-4.573-3.516-10.1-3.455-10.715l7.34.698.004-.036c-.003.03-.214 3.096 1.742 5.37a3.585 3.585 0 0 1-.434 5.11 3.72 3.72 0 0 1-2.737.841" fill="#CDB6FE"/>
        <path d="M24.782 62.875c2.16 3.401 5.226 1.843 5.883 1.25 1.407-1.27 1.93-3.224.438-5.188-1.836-2.415-1.759-5.42-1.756-5.45l-.004.036-2.59-.523c-3.476 3.141-3.07 8.145-1.97 9.875" fill="#A485FC"/>
        <path d="M19.693 55c-.049 0-.097-.001-.146-.003-2.037-.08-3.624-1.805-3.544-3.854.115-2.984 2.3-8.935 9.739-10.099a3.696 3.696 0 0 1 4.214 3.098c.313 2.026-1.066 3.923-3.08 4.239-3.361.525-3.493 2.948-3.498 3.051-.077 2-1.713 3.568-3.685 3.568" fill="#CDB6FE"/>
        <path d="M30 45.5c-.983-.846-1.751-1.5-1.751-1.5s-5.878 3.407-7.452 6.752C19.39 53.743 16.58 52.547 16 52.26c.383 1.518 1.771 2.673 3.474 2.737l.148.003c1.991 0 3.644-1.515 3.722-3.447.004-.1.138-2.441 3.532-2.95 1.684-.252 2.925-1.552 3.124-3.103" fill="#A485FC"/>
        <path d="M17.522 43c-.628 0-1.264-.17-1.84-.529-1.66-1.03-2.177-3.243-1.163-4.93.373-.62 3.815-6.07 9.687-6.531 1.94-.145 3.634 1.322 3.783 3.292.15 1.97-1.301 3.692-3.24 3.844-1.962.154-3.72 2.325-4.231 3.15A3.49 3.49 0 0 1 17.522 43" fill="#CDB6FE"/>
        <path d="M45.225 60h-20.45C22.137 60 20 57.82 20 55.13V50h30v5.13c0 2.69-2.137 4.87-4.775 4.87" fill="#003CE5"/>
        <path d="M25.281 56C22.921 56 21 54.063 21 51.681V4.32C21 1.937 22.92 0 25.281 0h20.437C48.08 0 50 1.937 50 4.319V51.68C50 54.063 48.08 56 45.718 56H25.281z" fill="#FFF"/>
        <path d="M45.225 0h-20.45C22.138 0 20 2.155 20 4.814v47.372C20 54.845 22.138 57 24.775 57h20.45C47.863 57 50 54.845 50 52.186V4.814C50 2.155 47.863 0 45.225 0" fill="#003CE5"/>
        <path d="M49 4.824v47.352C49 54.285 47.3 56 45.211 56H24.789C22.699 56 21 54.285 21 52.176V4.824C21 2.715 22.7 1 24.789 1H45.21C47.301 1 49 2.715 49 4.824z" fill="#FFF"/>
        <path d="M38.955 1H27c1.748 0 1.985 1.038 1.985 2 0 2 1.667 2 3.06 2h6.91c1.392 0 3.06 0 3.06-2 0-.962.237-2 1.985-2h-5.045z" fill="#003CE5"/>
        <path d="M40 2.5a.5.5 0 1 1-1 0 .5.5 0 0 1 1 0M37.548 3h-6.096c-.25 0-.452-.224-.452-.5s.202-.5.452-.5h6.096c.25 0 .452.224.452.5s-.203.5-.452.5" fill="#80DAFC"/>
        <path d="M37 36a2 2 0 1 1-4 0 2 2 0 0 1 4 0" fill="#003CE5"/>
        <path d="M35.5 21a8.5 8.5 0 1 1-3.972.983" stroke="#003CE5" stroke-width="1.7" stroke-linecap="round"/>
        <g transform="scale(1 -1) rotate(11 253.612 5.186)">
            <mask id="520eycnpcd" fill="#fff">
                <use xlink:href="#l5wt8lhjqc"/>
            </mask>
            <path d="m29.937 1.393 1.889 4.28a2.339 2.339 0 0 1-1.191 3.081l-14.86 6.573a8.03 8.03 0 0 1-1.193 2.37 8.06 8.06 0 0 1-11.275 1.757C-.29 16.819-1.074 11.762 1.556 8.158a8.06 8.06 0 0 1 11.275-1.753l.002.002L26.862.2a2.33 2.33 0 0 1 3.075 1.193" fill="#0A47F0" mask="url(#520eycnpcd)"/>
        </g>
        <path d="m35.948 37.912.489-2.151a2.34 2.34 0 0 0-1.758-2.797L18.7 29.313a8.081 8.081 0 0 0-1.968-2.82 8.058 8.058 0 0 0-11.401.43c-3.027 3.27-2.832 8.384.436 11.418a8.056 8.056 0 0 0 10.871.092l15.973 3.646a2.331 2.331 0 0 0 2.79-1.758l.548-2.409z" fill="#EAEFF5"/>
        <path d="M17.35 33.226a6.188 6.188 0 0 0-5.319-6.942 6.173 6.173 0 0 0-6.927 5.322 6.189 6.189 0 0 0 5.318 6.942 6.173 6.173 0 0 0 6.927-5.322" fill="#4354EF"/>
        <g transform="scale(1 -1) rotate(11 210.87 13.708)">
            <mask id="az6ekkvt6f" fill="#fff">
                <use xlink:href="#s9kcau16se"/>
            </mask>
            <path d="M12.62 4.398a6.458 6.458 0 1 1-12.247 4.1 6.458 6.458 0 0 1 12.248-4.1" fill="#0A47F0" mask="url(#az6ekkvt6f)"/>
        </g>
        <g transform="scale(1 -1) rotate(11 210.87 13.708)">
            <mask id="7uucrphowh" fill="#fff">
                <use xlink:href="#vgtxyme62g"/>
            </mask>
            <path d="M12.783 3.605a6.458 6.458 0 1 1-12.248 4.1 6.458 6.458 0 0 1 12.248-4.1" fill="#3D77FF" mask="url(#7uucrphowh)"/>
        </g>
        <g transform="scale(1 -1) rotate(11 210.87 13.708)">
            <mask id="3o7dxz952j" fill="#fff">
                <use xlink:href="#ca5kgji9oi"/>
            </mask>
            <path d="M8.44 6.866a2.021 2.021 0 1 1-3.96-.811 2.021 2.021 0 0 1 3.96.81" fill="#FF7800" mask="url(#3o7dxz952j)"/>
        </g>
        <g>
            <path d="M20.845 29.967c-2.534-.571-5.058 1.01-5.638 3.531-.58 2.522 1.091 4.863 3.625 5.434l2.013-8.965z" fill="#EAEFF5"/>
            <path d="m33.245 35.15-13.237-2.984a1.597 1.597 0 0 0-1.91 1.195l-.46 2.005a1.581 1.581 0 0 0 1.198 1.897l13.237 2.985a1.598 1.598 0 0 0 1.909-1.196l.46-2.005a1.581 1.581 0 0 0-1.197-1.896" fill="#B3D6FF"/>
            <path d="M21.121 36.004a.857.857 0 0 0 1.025-.642.849.849 0 0 0-.643-1.017.857.857 0 0 0-1.025.641.849.849 0 0 0 .643 1.018M24 36.653a.857.857 0 0 0 1.025-.642.849.849 0 0 0-.643-1.017.857.857 0 0 0-1.025.641.849.849 0 0 0 .643 1.018M26.88 37.302a.857.857 0 0 0 1.024-.641.849.849 0 0 0-.643-1.018.857.857 0 0 0-1.025.642.849.849 0 0 0 .643 1.017M29.759 37.952a.857.857 0 0 0 1.024-.642.849.849 0 0 0-.643-1.018.857.857 0 0 0-1.024.642.849.849 0 0 0 .643 1.018" fill="#3D77FF"/>
        </g>
        <path d="M56.14 61.546c-1.974 0-8.516 3.878-9.15 1.884-.182-.559 1.37-12.03-13.773-21.65-2.178-1.383-3.728-3.943-3.06-6.452.772-2.909 3.65-3.786 6.137-3.114 19.977 5.402 24.292 22.07 24.509 22.764.772 2.478-.808 5.57-3.263 6.35a4.632 4.632 0 0 1-1.4.218" fill="#CDB6FE"/>
        <path d="M51.061 40.092a.264.264 0 0 1 .369-.031l.258.222.167.146c.24.213.5.45.775.71l.338.321a41.593 41.593 0 0 1 3.374 3.652c2.36 2.893 4.014 5.793 4.652 8.573a.261.261 0 0 1-.51.114c-.617-2.69-2.236-5.526-4.55-8.363a41.08 41.08 0 0 0-3.331-3.606l-.334-.318-.318-.296a35.443 35.443 0 0 0-.153-.14l-.292-.263-.238-.208-.175-.15a.256.256 0 0 1-.032-.363z" fill="#003CE5"/>
        <rect fill="#003CE5" x="27" y="11" width="18" height="1" rx=".5"/>
        <rect fill="#003CE5" x="30" y="14" width="12" height="1" rx=".5"/>
        <g fill="#003CE5">
            <path d="M34.52 28c.309 0 .56.224.56.5v1c0 .276-.251.5-.56.5-.31 0-.56-.224-.56-.5v-1c0-.276.25-.5.56-.5zm-2.96 0c.308 0 .559.224.559.5v1c0 .276-.25.5-.56.5-.309 0-.559-.224-.559-.5v-1c0-.276.25-.5.56-.5zm8.88 0c.31 0 .56.224.56.5v1c0 .276-.25.5-.56.5-.308 0-.559-.224-.559-.5v-1c0-.276.25-.5.56-.5zm-2.96 0c.31 0 .56.224.56.5v1c0 .276-.25.5-.56.5-.309 0-.56-.224-.56-.5v-1c0-.276.251-.5.56-.5z"/>
        </g>
    </g>
</svg>
